<?xml version="1.0" encoding="UTF-8" standalone="no"?>
<!DOCTYPE svg PUBLIC "-//W3C//DTD SVG 1.1//EN"
 "http://www.w3.org/Graphics/SVG/1.1/DTD/svg11.dtd">
<!-- Generated by graphviz version 2.47.3 (20210619.1520)
 -->
<!-- Title: CurrencyConversion Pages: 1 -->
<svg width="710pt" height="220pt"
 viewBox="0.00 0.00 710.09 220.00" xmlns="http://www.w3.org/2000/svg" xmlns:xlink="http://www.w3.org/1999/xlink">
<g id="graph0" class="graph" transform="scale(1 1) rotate(0) translate(4 216)">
<title>CurrencyConversion</title>
<polygon fill="white" stroke="transparent" points="-4,4 -4,-216 706.09,-216 706.09,4 -4,4"/>
<g id="clust1" class="cluster">
<title>cluster_Rates</title>
</g>
<!-- RatesStorage -->
<g id="node1" class="node">
<title>RatesStorage</title>
<path fill="none" stroke="black" d="M298.09,-192.73C298.09,-194.53 277.92,-196 253.09,-196 228.26,-196 208.09,-194.53 208.09,-192.73 208.09,-192.73 208.09,-163.27 208.09,-163.27 208.09,-161.47 228.26,-160 253.09,-160 277.92,-160 298.09,-161.47 298.09,-163.27 298.09,-163.27 298.09,-192.73 298.09,-192.73"/>
<path fill="none" stroke="black" d="M298.09,-192.73C298.09,-190.92 277.92,-189.45 253.09,-189.45 228.26,-189.45 208.09,-190.92 208.09,-192.73"/>
<text text-anchor="middle" x="253.09" y="-174.3" font-family="Times,serif" font-size="14.00">RatesStorage</text>
</g>
<!-- RatesLoader -->
<g id="node2" class="node">
<title>RatesLoader</title>
<polygon fill="none" stroke="#e31a1c" points="251.59,-109 164.59,-109 164.59,-105 160.59,-105 160.59,-101 164.59,-101 164.59,-81 160.59,-81 160.59,-77 164.59,-77 164.59,-73 251.59,-73 251.59,-109"/>
<polyline fill="none" stroke="#e31a1c" points="164.59,-105 168.59,-105 168.59,-101 164.59,-101 "/>
<polyline fill="none" stroke="#e31a1c" points="164.59,-81 168.59,-81 168.59,-77 164.59,-77 "/>
<text text-anchor="middle" x="208.09" y="-87.3" font-family="Times,serif" font-size="14.00">RatesLoader</text>
</g>
<!-- RatesStorage&#45;&gt;RatesLoader -->
<g id="edge1" class="edge">
<title>RatesStorage&#45;&gt;RatesLoader</title>
<path fill="none" stroke="black" d="M207.79,-163.42C198.01,-158.3 188.88,-151.36 183.09,-142 178.3,-134.24 180.39,-125.44 184.97,-117.4"/>
<polygon fill="black" stroke="black" points="187.91,-119.3 190.7,-109.07 182.15,-115.33 187.91,-119.3"/>
<text text-anchor="middle" x="212.59" y="-130.8" font-family="Times,serif" font-size="14.00">previous &#160;&#160;</text>
</g>
<!-- BulkTransactionProcessing -->
<g id="node5" class="node">
<title>BulkTransactionProcessing</title>
<polygon fill="none" stroke="#e31a1c" points="484.09,-109 314.09,-109 314.09,-105 310.09,-105 310.09,-101 314.09,-101 314.09,-81 310.09,-81 310.09,-77 314.09,-77 314.09,-73 484.09,-73 484.09,-109"/>
<polyline fill="none" stroke="#e31a1c" points="314.09,-105 318.09,-105 318.09,-101 314.09,-101 "/>
<polyline fill="none" stroke="#e31a1c" points="314.09,-81 318.09,-81 318.09,-77 314.09,-77 "/>
<text text-anchor="middle" x="399.09" y="-87.3" font-family="Times,serif" font-size="14.00">BulkTransactionProcessing</text>
</g>
<!-- RatesStorage&#45;&gt;BulkTransactionProcessing -->
<g id="edge5" class="edge">
<title>RatesStorage&#45;&gt;BulkTransactionProcessing</title>
<path fill="none" stroke="black" d="M281.94,-160.21C304.59,-147.02 336.32,-128.55 361.05,-114.15"/>
<polygon fill="black" stroke="black" points="362.93,-117.11 369.81,-109.05 359.41,-111.06 362.93,-117.11"/>
</g>
<!-- StreamingTransactionProcessing -->
<g id="node6" class="node">
<title>StreamingTransactionProcessing</title>
<polygon fill="none" stroke="#e31a1c" points="702.09,-109 502.09,-109 502.09,-105 498.09,-105 498.09,-101 502.09,-101 502.09,-81 498.09,-81 498.09,-77 502.09,-77 502.09,-73 702.09,-73 702.09,-109"/>
<polyline fill="none" stroke="#e31a1c" points="502.09,-105 506.09,-105 506.09,-101 502.09,-101 "/>
<polyline fill="none" stroke="#e31a1c" points="502.09,-81 506.09,-81 506.09,-77 502.09,-77 "/>
<text text-anchor="middle" x="602.09" y="-87.3" font-family="Times,serif" font-size="14.00">StreamingTransactionProcessing</text>
</g>
<!-- RatesStorage&#45;&gt;StreamingTransactionProcessing -->
<g id="edge8" class="edge">
<title>RatesStorage&#45;&gt;StreamingTransactionProcessing</title>
<path fill="none" stroke="black" d="M298.36,-165.97C354.97,-152.19 452.84,-128.35 522.18,-111.46"/>
<polygon fill="black" stroke="black" points="523.3,-114.79 532.19,-109.03 521.65,-107.99 523.3,-114.79"/>
</g>
<!-- RatesLoader&#45;&gt;RatesStorage -->
<g id="edge3" class="edge">
<title>RatesLoader&#45;&gt;RatesStorage</title>
<path fill="none" stroke="black" d="M228.59,-109.32C233.67,-114.53 238.64,-120.58 242.09,-127 245.86,-134 248.33,-142.2 249.96,-149.92"/>
<polygon fill="black" stroke="black" points="246.55,-150.72 251.7,-159.98 253.45,-149.53 246.55,-150.72"/>
<text text-anchor="middle" x="264.09" y="-130.8" font-family="Times,serif" font-size="14.00">new &#160;&#160;</text>
</g>
<!-- TransactionsDump -->
<g id="node3" class="node">
<title>TransactionsDump</title>
<path fill="none" stroke="black" d="M460.59,-192.73C460.59,-194.53 433.03,-196 399.09,-196 365.16,-196 337.59,-194.53 337.59,-192.73 337.59,-192.73 337.59,-163.27 337.59,-163.27 337.59,-161.47 365.16,-160 399.09,-160 433.03,-160 460.59,-161.47 460.59,-163.27 460.59,-163.27 460.59,-192.73 460.59,-192.73"/>
<path fill="none" stroke="black" d="M460.59,-192.73C460.59,-190.92 433.03,-189.45 399.09,-189.45 365.16,-189.45 337.59,-190.92 337.59,-192.73"/>
<text text-anchor="middle" x="399.09" y="-174.3" font-family="Times,serif" font-size="14.00">TransactionsDump</text>
</g>
<!-- TransactionsDump&#45;&gt;BulkTransactionProcessing -->
<g id="edge4" class="edge">
<title>TransactionsDump&#45;&gt;BulkTransactionProcessing</title>
<path fill="none" stroke="black" d="M399.09,-159.8C399.09,-148.16 399.09,-132.55 399.09,-119.24"/>
<polygon fill="black" stroke="black" points="402.59,-119.18 399.09,-109.18 395.59,-119.18 402.59,-119.18"/>
</g>
<!-- TransactionsEnriched -->
<g id="node4" class="node">
<title>TransactionsEnriched</title>
<path fill="none" stroke="black" d="M468.09,-32.73C468.09,-34.53 437.17,-36 399.09,-36 361.02,-36 330.09,-34.53 330.09,-32.73 330.09,-32.73 330.09,-3.27 330.09,-3.27 330.09,-1.47 361.02,0 399.09,0 437.17,0 468.09,-1.47 468.09,-3.27 468.09,-3.27 468.09,-32.73 468.09,-32.73"/>
<path fill="none" stroke="black" d="M468.09,-32.73C468.09,-30.92 437.17,-29.45 399.09,-29.45 361.02,-29.45 330.09,-30.92 330.09,-32.73"/>
<text text-anchor="middle" x="399.09" y="-14.3" font-family="Times,serif" font-size="14.00">TransactionsEnriched</text>
</g>
<!-- BulkTransactionProcessing&#45;&gt;TransactionsEnriched -->
<g id="edge6" class="edge">
<title>BulkTransactionProcessing&#45;&gt;TransactionsEnriched</title>
<path fill="none" stroke="black" d="M399.09,-72.81C399.09,-64.79 399.09,-55.05 399.09,-46.07"/>
<polygon fill="black" stroke="black" points="402.59,-46.03 399.09,-36.03 395.59,-46.03 402.59,-46.03"/>
</g>
<!-- TransactionsTopic -->
<g id="node9" class="node">
<title>TransactionsTopic</title>
<ellipse fill="none" stroke="black" cx="602.09" cy="-18" rx="77.19" ry="18"/>
<text text-anchor="middle" x="602.09" y="-14.3" font-family="Times,serif" font-size="14.00">TransactionsTopic</text>
</g>
<!-- StreamingTransactionProcessing&#45;&gt;TransactionsTopic -->
<g id="edge9" class="edge">
<title>StreamingTransactionProcessing&#45;&gt;TransactionsTopic</title>
<path fill="none" stroke="black" d="M602.09,-72.81C602.09,-64.79 602.09,-55.05 602.09,-46.07"/>
<polygon fill="black" stroke="black" points="605.59,-46.03 602.09,-36.03 598.59,-46.03 605.59,-46.03"/>
</g>
<!-- FXRatesProvider -->
<g id="node7" class="node">
<title>FXRatesProvider</title>
<ellipse fill="none" stroke="black" cx="74.09" cy="-178" rx="74.19" ry="18"/>
<text text-anchor="middle" x="74.09" y="-174.3" font-family="Times,serif" font-size="14.00">FXRatesProvider</text>
</g>
<!-- FXRatesProvider&#45;&gt;RatesLoader -->
<g id="edge2" class="edge">
<title>FXRatesProvider&#45;&gt;RatesLoader</title>
<path fill="none" stroke="black" d="M82.39,-160.09C88.46,-149.29 97.62,-135.72 109.09,-127 122.43,-116.86 138.96,-109.49 154.66,-104.21"/>
<polygon fill="black" stroke="black" points="155.8,-107.52 164.29,-101.18 153.71,-100.84 155.8,-107.52"/>
<text text-anchor="middle" x="142.59" y="-130.8" font-family="Times,serif" font-size="14.00">increment &#160;&#160;</text>
</g>
<!-- TransactionStream -->
<g id="node8" class="node">
<title>TransactionStream</title>
<ellipse fill="none" stroke="black" cx="602.09" cy="-178" rx="79.09" ry="18"/>
<text text-anchor="middle" x="602.09" y="-174.3" font-family="Times,serif" font-size="14.00">TransactionStream</text>
</g>
<!-- TransactionStream&#45;&gt;StreamingTransactionProcessing -->
<g id="edge7" class="edge">
<title>TransactionStream&#45;&gt;StreamingTransactionProcessing</title>
<path fill="none" stroke="black" d="M602.09,-159.8C602.09,-148.16 602.09,-132.55 602.09,-119.24"/>
<polygon fill="black" stroke="black" points="605.59,-119.18 602.09,-109.18 598.59,-119.18 605.59,-119.18"/>
</g>
</g>
</svg>
