<?xml version="1.0" encoding="UTF-8" standalone="no"?>
<!DOCTYPE svg PUBLIC "-//W3C//DTD SVG 1.1//EN"
 "http://www.w3.org/Graphics/SVG/1.1/DTD/svg11.dtd">
<!-- Generated by graphviz version 2.47.3 (20210619.1520)
 -->
<!-- Title: CurrencyConversion Pages: 1 -->
<svg width="712pt" height="220pt"
 viewBox="0.00 0.00 711.88 220.00" xmlns="http://www.w3.org/2000/svg" xmlns:xlink="http://www.w3.org/1999/xlink">
<g id="graph0" class="graph" transform="scale(1 1) rotate(0) translate(4 216)">
<title>CurrencyConversion</title>
<polygon fill="white" stroke="transparent" points="-4,4 -4,-216 707.88,-216 707.88,4 -4,4"/>
<g id="clust1" class="cluster">
<title>cluster_Rates</title>
</g>
<!-- RatesStorage -->
<g id="node1" class="node">
<title>RatesStorage</title>
<path fill="none" stroke="black" d="M298.09,-192.73C298.09,-194.53 277.92,-196 253.09,-196 228.26,-196 208.09,-194.53 208.09,-192.73 208.09,-192.73 208.09,-163.27 208.09,-163.27 208.09,-161.47 228.26,-160 253.09,-160 277.92,-160 298.09,-161.47 298.09,-163.27 298.09,-163.27 298.09,-192.73 298.09,-192.73"/>
<path fill="none" stroke="black" d="M298.09,-192.73C298.09,-190.92 277.92,-189.45 253.09,-189.45 228.26,-189.45 208.09,-190.92 208.09,-192.73"/>
<text text-anchor="middle" x="253.09" y="-174.3" font-family="Times,serif" font-size="14.00">RatesStorage</text>
</g>
<!-- RatesLoader -->
<g id="node2" class="node">
<title>RatesLoader</title>
<polygon fill="none" stroke="#e31a1c" points="251.59,-109 164.59,-109 164.59,-105 160.59,-105 160.59,-101 164.59,-101 164.59,-81 160.59,-81 160.59,-77 164.59,-77 164.59,-73 251.59,-73 251.59,-109"/>
<polyline fill="none" stroke="#e31a1c" points="164.59,-105 168.59,-105 168.59,-101 164.59,-101 "/>
<polyline fill="none" stroke="#e31a1c" points="164.59,-81 168.59,-81 168.59,-77 164.59,-77 "/>
<text text-anchor="middle" x="208.09" y="-87.3" font-family="Times,serif" font-size="14.00">RatesLoader</text>
</g>
<!-- RatesStorage&#45;&gt;RatesLoader -->
<g id="edge1" class="edge">
<title>RatesStorage&#45;&gt;RatesLoader</title>
<path fill="none" stroke="black" d="M207.79,-163.42C198.01,-158.3 188.88,-151.36 183.09,-142 178.3,-134.24 180.39,-125.44 184.97,-117.4"/>
<polygon fill="black" stroke="black" points="187.91,-119.3 190.7,-109.07 182.15,-115.33 187.91,-119.3"/>
<text text-anchor="middle" x="212.59" y="-130.8" font-family="Times,serif" font-size="14.00">previous &#160;&#160;</text>
</g>
<!-- TransactionEnricherBatch -->
<g id="node6" class="node">
<title>TransactionEnricherBatch</title>
<polygon fill="none" stroke="#e31a1c" points="477.59,-109 314.59,-109 314.59,-105 310.59,-105 310.59,-101 314.59,-101 314.59,-81 310.59,-81 310.59,-77 314.59,-77 314.59,-73 477.59,-73 477.59,-109"/>
<polyline fill="none" stroke="#e31a1c" points="314.59,-105 318.59,-105 318.59,-101 314.59,-101 "/>
<polyline fill="none" stroke="#e31a1c" points="314.59,-81 318.59,-81 318.59,-77 314.59,-77 "/>
<text text-anchor="middle" x="396.09" y="-87.3" font-family="Times,serif" font-size="14.00">TransactionEnricherBatch</text>
</g>
<!-- RatesStorage&#45;&gt;TransactionEnricherBatch -->
<g id="edge5" class="edge">
<title>RatesStorage&#45;&gt;TransactionEnricherBatch</title>
<path fill="none" stroke="black" d="M281.35,-160.21C303.43,-147.08 334.34,-128.71 358.51,-114.34"/>
<polygon fill="black" stroke="black" points="360.6,-117.17 367.41,-109.05 357.03,-111.15 360.6,-117.17"/>
</g>
<!-- TransactionEnricherStream -->
<g id="node7" class="node">
<title>TransactionEnricherStream</title>
<polygon fill="none" stroke="#e31a1c" points="670.09,-109 500.09,-109 500.09,-105 496.09,-105 496.09,-101 500.09,-101 500.09,-81 496.09,-81 496.09,-77 500.09,-77 500.09,-73 670.09,-73 670.09,-109"/>
<polyline fill="none" stroke="#e31a1c" points="500.09,-105 504.09,-105 504.09,-101 500.09,-101 "/>
<polyline fill="none" stroke="#e31a1c" points="500.09,-81 504.09,-81 504.09,-77 500.09,-77 "/>
<text text-anchor="middle" x="585.09" y="-87.3" font-family="Times,serif" font-size="14.00">TransactionEnricherStream</text>
</g>
<!-- RatesStorage&#45;&gt;TransactionEnricherStream -->
<g id="edge8" class="edge">
<title>RatesStorage&#45;&gt;TransactionEnricherStream</title>
<path fill="none" stroke="black" d="M298.21,-165.45C352.26,-151.61 443.65,-128.21 508.75,-111.54"/>
<polygon fill="black" stroke="black" points="509.74,-114.9 518.56,-109.03 508.01,-108.12 509.74,-114.9"/>
</g>
<!-- RatesLoader&#45;&gt;RatesStorage -->
<g id="edge3" class="edge">
<title>RatesLoader&#45;&gt;RatesStorage</title>
<path fill="none" stroke="black" d="M228.59,-109.32C233.67,-114.53 238.64,-120.58 242.09,-127 245.86,-134 248.33,-142.2 249.96,-149.92"/>
<polygon fill="black" stroke="black" points="246.55,-150.72 251.7,-159.98 253.45,-149.53 246.55,-150.72"/>
<text text-anchor="middle" x="264.09" y="-130.8" font-family="Times,serif" font-size="14.00">new &#160;&#160;</text>
</g>
<!-- Transactions -->
<g id="node3" class="node">
<title>Transactions</title>
<path fill="none" stroke="black" d="M440.09,-192.73C440.09,-194.53 420.37,-196 396.09,-196 371.81,-196 352.09,-194.53 352.09,-192.73 352.09,-192.73 352.09,-163.27 352.09,-163.27 352.09,-161.47 371.81,-160 396.09,-160 420.37,-160 440.09,-161.47 440.09,-163.27 440.09,-163.27 440.09,-192.73 440.09,-192.73"/>
<path fill="none" stroke="black" d="M440.09,-192.73C440.09,-190.92 420.37,-189.45 396.09,-189.45 371.81,-189.45 352.09,-190.92 352.09,-192.73"/>
<text text-anchor="middle" x="396.09" y="-174.3" font-family="Times,serif" font-size="14.00">Transactions</text>
</g>
<!-- Transactions&#45;&gt;TransactionEnricherBatch -->
<g id="edge4" class="edge">
<title>Transactions&#45;&gt;TransactionEnricherBatch</title>
<path fill="none" stroke="black" d="M396.09,-159.8C396.09,-148.16 396.09,-132.55 396.09,-119.24"/>
<polygon fill="black" stroke="black" points="399.59,-119.18 396.09,-109.18 392.59,-119.18 399.59,-119.18"/>
</g>
<!-- TransactionsEnriched -->
<g id="node4" class="node">
<title>TransactionsEnriched</title>
<path fill="none" stroke="black" d="M462.09,-32.73C462.09,-34.53 431.17,-36 393.09,-36 355.02,-36 324.09,-34.53 324.09,-32.73 324.09,-32.73 324.09,-3.27 324.09,-3.27 324.09,-1.47 355.02,0 393.09,0 431.17,0 462.09,-1.47 462.09,-3.27 462.09,-3.27 462.09,-32.73 462.09,-32.73"/>
<path fill="none" stroke="black" d="M462.09,-32.73C462.09,-30.92 431.17,-29.45 393.09,-29.45 355.02,-29.45 324.09,-30.92 324.09,-32.73"/>
<text text-anchor="middle" x="393.09" y="-14.3" font-family="Times,serif" font-size="14.00">TransactionsEnriched</text>
</g>
<!-- TransactionsTopic -->
<g id="node5" class="node">
<title>TransactionsTopic</title>
<ellipse fill="none" stroke="black" cx="592.09" cy="-18" rx="111.58" ry="18"/>
<text text-anchor="middle" x="592.09" y="-14.3" font-family="Times,serif" font-size="14.00">TransactionEnrichedStream</text>
</g>
<!-- TransactionEnricherBatch&#45;&gt;TransactionsEnriched -->
<g id="edge6" class="edge">
<title>TransactionEnricherBatch&#45;&gt;TransactionsEnriched</title>
<path fill="none" stroke="black" d="M395.37,-72.81C395.03,-64.79 394.62,-55.05 394.24,-46.07"/>
<polygon fill="black" stroke="black" points="397.73,-45.87 393.81,-36.03 390.74,-46.17 397.73,-45.87"/>
</g>
<!-- TransactionEnricherStream&#45;&gt;TransactionsTopic -->
<g id="edge9" class="edge">
<title>TransactionEnricherStream&#45;&gt;TransactionsTopic</title>
<path fill="none" stroke="black" d="M586.79,-72.81C587.58,-64.79 588.54,-55.05 589.42,-46.07"/>
<polygon fill="black" stroke="black" points="592.92,-46.32 590.41,-36.03 585.95,-45.64 592.92,-46.32"/>
</g>
<!-- FXRatesProvider -->
<g id="node8" class="node">
<title>FXRatesProvider</title>
<ellipse fill="none" stroke="black" cx="74.09" cy="-178" rx="74.19" ry="18"/>
<text text-anchor="middle" x="74.09" y="-174.3" font-family="Times,serif" font-size="14.00">FXRatesProvider</text>
</g>
<!-- FXRatesProvider&#45;&gt;RatesLoader -->
<g id="edge2" class="edge">
<title>FXRatesProvider&#45;&gt;RatesLoader</title>
<path fill="none" stroke="black" d="M82.39,-160.09C88.46,-149.29 97.62,-135.72 109.09,-127 122.43,-116.86 138.96,-109.49 154.66,-104.21"/>
<polygon fill="black" stroke="black" points="155.8,-107.52 164.29,-101.18 153.71,-100.84 155.8,-107.52"/>
<text text-anchor="middle" x="142.59" y="-130.8" font-family="Times,serif" font-size="14.00">increment &#160;&#160;</text>
</g>
<!-- TransactionStream -->
<g id="node9" class="node">
<title>TransactionStream</title>
<ellipse fill="none" stroke="black" cx="585.09" cy="-178" rx="79.09" ry="18"/>
<text text-anchor="middle" x="585.09" y="-174.3" font-family="Times,serif" font-size="14.00">TransactionStream</text>
</g>
<!-- TransactionStream&#45;&gt;TransactionEnricherStream -->
<g id="edge7" class="edge">
<title>TransactionStream&#45;&gt;TransactionEnricherStream</title>
<path fill="none" stroke="black" d="M585.09,-159.8C585.09,-148.16 585.09,-132.55 585.09,-119.24"/>
<polygon fill="black" stroke="black" points="588.59,-119.18 585.09,-109.18 581.59,-119.18 588.59,-119.18"/>
</g>
</g>
</svg>
