<?xml version="1.0" encoding="UTF-8" standalone="no"?>
<!DOCTYPE svg PUBLIC "-//W3C//DTD SVG 1.1//EN"
 "http://www.w3.org/Graphics/SVG/1.1/DTD/svg11.dtd">
<!-- Generated by graphviz version 2.47.3 (20210619.1520)
 -->
<!-- Title: CurrencyConversion Pages: 1 -->
<svg width="634pt" height="204pt"
 viewBox="0.00 0.00 634.09 204.00" xmlns="http://www.w3.org/2000/svg" xmlns:xlink="http://www.w3.org/1999/xlink">
<g id="graph0" class="graph" transform="scale(1 1) rotate(0) translate(4 200)">
<title>CurrencyConversion</title>
<polygon fill="white" stroke="transparent" points="-4,4 -4,-200 630.09,-200 630.09,4 -4,4"/>
<!-- RatesStorage -->
<g id="node1" class="node">
<title>RatesStorage</title>
<path fill="none" stroke="black" d="M426,-192.73C426,-194.53 405.83,-196 381,-196 356.17,-196 336,-194.53 336,-192.73 336,-192.73 336,-163.27 336,-163.27 336,-161.47 356.17,-160 381,-160 405.83,-160 426,-161.47 426,-163.27 426,-163.27 426,-192.73 426,-192.73"/>
<path fill="none" stroke="black" d="M426,-192.73C426,-190.92 405.83,-189.45 381,-189.45 356.17,-189.45 336,-190.92 336,-192.73"/>
<text text-anchor="middle" x="381" y="-174.3" font-family="Times,serif" font-size="14.00">RatesStorage</text>
</g>
<!-- RatesLoader -->
<g id="node4" class="node">
<title>RatesLoader</title>
<polygon fill="none" stroke="#e31a1c" points="496.5,-109 409.5,-109 409.5,-105 405.5,-105 405.5,-101 409.5,-101 409.5,-81 405.5,-81 405.5,-77 409.5,-77 409.5,-73 496.5,-73 496.5,-109"/>
<polyline fill="none" stroke="#e31a1c" points="409.5,-105 413.5,-105 413.5,-101 409.5,-101 "/>
<polyline fill="none" stroke="#e31a1c" points="409.5,-81 413.5,-81 413.5,-77 409.5,-77 "/>
<text text-anchor="middle" x="453" y="-87.3" font-family="Times,serif" font-size="14.00">RatesLoader</text>
</g>
<!-- RatesStorage&#45;&gt;RatesLoader -->
<g id="edge1" class="edge">
<title>RatesStorage&#45;&gt;RatesLoader</title>
<path fill="none" stroke="black" d="M410.48,-160.33C417.85,-155.16 425.29,-148.96 431,-142 436.65,-135.12 441.11,-126.57 444.5,-118.49"/>
<polygon fill="black" stroke="black" points="447.82,-119.61 448.11,-109.02 441.28,-117.12 447.82,-119.61"/>
<text text-anchor="middle" x="477" y="-130.8" font-family="Times,serif" font-size="14.00">previous data</text>
</g>
<!-- BulkTransactionProcessing -->
<g id="node5" class="node">
<title>BulkTransactionProcessing</title>
<polygon fill="none" stroke="#e31a1c" points="170,-109 0,-109 0,-105 -4,-105 -4,-101 0,-101 0,-81 -4,-81 -4,-77 0,-77 0,-73 170,-73 170,-109"/>
<polyline fill="none" stroke="#e31a1c" points="0,-105 4,-105 4,-101 0,-101 "/>
<polyline fill="none" stroke="#e31a1c" points="0,-81 4,-81 4,-77 0,-77 "/>
<text text-anchor="middle" x="85" y="-87.3" font-family="Times,serif" font-size="14.00">BulkTransactionProcessing</text>
</g>
<!-- RatesStorage&#45;&gt;BulkTransactionProcessing -->
<g id="edge5" class="edge">
<title>RatesStorage&#45;&gt;BulkTransactionProcessing</title>
<path fill="none" stroke="black" d="M335.95,-162.7C332.92,-161.78 329.92,-160.87 327,-160 270.16,-143.07 205.48,-124.96 157.29,-111.68"/>
<polygon fill="black" stroke="black" points="158.15,-108.29 147.58,-109.01 156.29,-115.04 158.15,-108.29"/>
</g>
<!-- StreamingTransactionProcessing -->
<g id="node6" class="node">
<title>StreamingTransactionProcessing</title>
<polygon fill="none" stroke="#e31a1c" points="390,-109 190,-109 190,-105 186,-105 186,-101 190,-101 190,-81 186,-81 186,-77 190,-77 190,-73 390,-73 390,-109"/>
<polyline fill="none" stroke="#e31a1c" points="190,-105 194,-105 194,-101 190,-101 "/>
<polyline fill="none" stroke="#e31a1c" points="190,-81 194,-81 194,-77 190,-77 "/>
<text text-anchor="middle" x="290" y="-87.3" font-family="Times,serif" font-size="14.00">StreamingTransactionProcessing</text>
</g>
<!-- RatesStorage&#45;&gt;StreamingTransactionProcessing -->
<g id="edge8" class="edge">
<title>RatesStorage&#45;&gt;StreamingTransactionProcessing</title>
<path fill="none" stroke="black" d="M362.58,-159.8C349.14,-147.24 330.74,-130.05 315.82,-116.12"/>
<polygon fill="black" stroke="black" points="318.08,-113.44 308.39,-109.18 313.31,-118.56 318.08,-113.44"/>
</g>
<!-- TransactionsDump -->
<g id="node2" class="node">
<title>TransactionsDump</title>
<path fill="none" stroke="black" d="M141.5,-192.73C141.5,-194.53 113.93,-196 80,-196 46.07,-196 18.5,-194.53 18.5,-192.73 18.5,-192.73 18.5,-163.27 18.5,-163.27 18.5,-161.47 46.07,-160 80,-160 113.93,-160 141.5,-161.47 141.5,-163.27 141.5,-163.27 141.5,-192.73 141.5,-192.73"/>
<path fill="none" stroke="black" d="M141.5,-192.73C141.5,-190.92 113.93,-189.45 80,-189.45 46.07,-189.45 18.5,-190.92 18.5,-192.73"/>
<text text-anchor="middle" x="80" y="-174.3" font-family="Times,serif" font-size="14.00">TransactionsDump</text>
</g>
<!-- TransactionsDump&#45;&gt;BulkTransactionProcessing -->
<g id="edge4" class="edge">
<title>TransactionsDump&#45;&gt;BulkTransactionProcessing</title>
<path fill="none" stroke="black" d="M81.01,-159.8C81.7,-148.16 82.61,-132.55 83.4,-119.24"/>
<polygon fill="black" stroke="black" points="86.9,-119.36 83.99,-109.18 79.91,-118.95 86.9,-119.36"/>
</g>
<!-- TransactionsEnriched -->
<g id="node3" class="node">
<title>TransactionsEnriched</title>
<path fill="none" stroke="black" d="M154,-32.73C154,-34.53 123.07,-36 85,-36 46.93,-36 16,-34.53 16,-32.73 16,-32.73 16,-3.27 16,-3.27 16,-1.47 46.93,0 85,0 123.07,0 154,-1.47 154,-3.27 154,-3.27 154,-32.73 154,-32.73"/>
<path fill="none" stroke="black" d="M154,-32.73C154,-30.92 123.07,-29.45 85,-29.45 46.93,-29.45 16,-30.92 16,-32.73"/>
<text text-anchor="middle" x="85" y="-14.3" font-family="Times,serif" font-size="14.00">TransactionsEnriched</text>
</g>
<!-- RatesLoader&#45;&gt;RatesStorage -->
<g id="edge3" class="edge">
<title>RatesLoader&#45;&gt;RatesStorage</title>
<path fill="none" stroke="black" d="M409.43,-107.06C394.4,-113.2 380.25,-120.39 376,-127 371.67,-133.73 371.08,-142.06 372.12,-149.98"/>
<polygon fill="black" stroke="black" points="368.74,-150.93 374.23,-159.99 375.59,-149.48 368.74,-150.93"/>
<text text-anchor="middle" x="401.5" y="-130.8" font-family="Times,serif" font-size="14.00">new data</text>
</g>
<!-- BulkTransactionProcessing&#45;&gt;TransactionsEnriched -->
<g id="edge6" class="edge">
<title>BulkTransactionProcessing&#45;&gt;TransactionsEnriched</title>
<path fill="none" stroke="black" d="M85,-72.81C85,-64.79 85,-55.05 85,-46.07"/>
<polygon fill="black" stroke="black" points="88.5,-46.03 85,-36.03 81.5,-46.03 88.5,-46.03"/>
</g>
<!-- TrasnactionsTopic -->
<g id="node9" class="node">
<title>TrasnactionsTopic</title>
<ellipse fill="none" stroke="black" cx="290" cy="-18" rx="77.19" ry="18"/>
<text text-anchor="middle" x="290" y="-14.3" font-family="Times,serif" font-size="14.00">TrasnactionsTopic</text>
</g>
<!-- StreamingTransactionProcessing&#45;&gt;TrasnactionsTopic -->
<g id="edge9" class="edge">
<title>StreamingTransactionProcessing&#45;&gt;TrasnactionsTopic</title>
<path fill="none" stroke="black" d="M290,-72.81C290,-64.79 290,-55.05 290,-46.07"/>
<polygon fill="black" stroke="black" points="293.5,-46.03 290,-36.03 286.5,-46.03 293.5,-46.03"/>
</g>
<!-- FXRatesProvider -->
<g id="node7" class="node">
<title>FXRatesProvider</title>
<ellipse fill="none" stroke="black" cx="552" cy="-178" rx="74.19" ry="18"/>
<text text-anchor="middle" x="552" y="-174.3" font-family="Times,serif" font-size="14.00">FXRatesProvider</text>
</g>
<!-- FXRatesProvider&#45;&gt;RatesLoader -->
<g id="edge2" class="edge">
<title>FXRatesProvider&#45;&gt;RatesLoader</title>
<path fill="none" stroke="black" d="M543.43,-159.67C537.62,-149.24 529.16,-136.23 519,-127 513.9,-122.37 508.09,-118.16 502.06,-114.38"/>
<polygon fill="black" stroke="black" points="503.55,-111.2 493.15,-109.18 500.02,-117.24 503.55,-111.2"/>
<text text-anchor="middle" x="559" y="-130.8" font-family="Times,serif" font-size="14.00">increment</text>
</g>
<!-- TransactionStream -->
<g id="node8" class="node">
<title>TransactionStream</title>
<ellipse fill="none" stroke="black" cx="239" cy="-178" rx="79.09" ry="18"/>
<text text-anchor="middle" x="239" y="-174.3" font-family="Times,serif" font-size="14.00">TransactionStream</text>
</g>
<!-- TransactionStream&#45;&gt;StreamingTransactionProcessing -->
<g id="edge7" class="edge">
<title>TransactionStream&#45;&gt;StreamingTransactionProcessing</title>
<path fill="none" stroke="black" d="M249.32,-159.8C256.51,-147.82 266.23,-131.62 274.37,-118.06"/>
<polygon fill="black" stroke="black" points="277.55,-119.55 279.69,-109.18 271.55,-115.95 277.55,-119.55"/>
</g>
</g>
</svg>
