<?xml version="1.0" encoding="UTF-8" standalone="no"?>
<!DOCTYPE svg PUBLIC "-//W3C//DTD SVG 1.1//EN"
 "http://www.w3.org/Graphics/SVG/1.1/DTD/svg11.dtd">
<!-- Generated by graphviz version 2.47.3 (20210619.1520)
 -->
<!-- Title: CurrencyConversion Pages: 1 -->
<svg width="421pt" height="332pt"
 viewBox="0.00 0.00 420.50 332.00" xmlns="http://www.w3.org/2000/svg" xmlns:xlink="http://www.w3.org/1999/xlink">
<g id="graph0" class="graph" transform="scale(1 1) rotate(0) translate(4 328)">
<title>CurrencyConversion</title>
<polygon fill="white" stroke="transparent" points="-4,4 -4,-328 416.5,-328 416.5,4 -4,4"/>
<!-- RatesStorage -->
<g id="node1" class="node">
<title>RatesStorage</title>
<path fill="none" stroke="black" d="M231.5,-176.73C231.5,-178.53 211.33,-180 186.5,-180 161.67,-180 141.5,-178.53 141.5,-176.73 141.5,-176.73 141.5,-147.27 141.5,-147.27 141.5,-145.47 161.67,-144 186.5,-144 211.33,-144 231.5,-145.47 231.5,-147.27 231.5,-147.27 231.5,-176.73 231.5,-176.73"/>
<path fill="none" stroke="black" d="M231.5,-176.73C231.5,-174.92 211.33,-173.45 186.5,-173.45 161.67,-173.45 141.5,-174.92 141.5,-176.73"/>
<text text-anchor="middle" x="186.5" y="-158.3" font-family="Times,serif" font-size="14.00">RatesStorage</text>
</g>
<!-- BulkTransactionProcessing -->
<g id="node5" class="node">
<title>BulkTransactionProcessing</title>
<polygon fill="none" stroke="black" points="178.5,-108 8.5,-108 8.5,-104 4.5,-104 4.5,-100 8.5,-100 8.5,-80 4.5,-80 4.5,-76 8.5,-76 8.5,-72 178.5,-72 178.5,-108"/>
<polyline fill="none" stroke="black" points="8.5,-104 12.5,-104 12.5,-100 8.5,-100 "/>
<polyline fill="none" stroke="black" points="8.5,-80 12.5,-80 12.5,-76 8.5,-76 "/>
<text text-anchor="middle" x="93.5" y="-86.3" font-family="Times,serif" font-size="14.00">BulkTransactionProcessing</text>
</g>
<!-- RatesStorage&#45;&gt;BulkTransactionProcessing -->
<g id="edge4" class="edge">
<title>RatesStorage&#45;&gt;BulkTransactionProcessing</title>
<path fill="none" stroke="black" d="M163.51,-143.7C151.69,-134.8 137.11,-123.82 124.32,-114.2"/>
<polygon fill="black" stroke="black" points="126.32,-111.32 116.22,-108.1 122.11,-116.91 126.32,-111.32"/>
</g>
<!-- StreamingTransactionProcessing -->
<g id="node6" class="node">
<title>StreamingTransactionProcessing</title>
<polygon fill="none" stroke="black" points="412.5,-108 212.5,-108 212.5,-104 208.5,-104 208.5,-100 212.5,-100 212.5,-80 208.5,-80 208.5,-76 212.5,-76 212.5,-72 412.5,-72 412.5,-108"/>
<polyline fill="none" stroke="black" points="212.5,-104 216.5,-104 216.5,-100 212.5,-100 "/>
<polyline fill="none" stroke="black" points="212.5,-80 216.5,-80 216.5,-76 212.5,-76 "/>
<text text-anchor="middle" x="312.5" y="-86.3" font-family="Times,serif" font-size="14.00">StreamingTransactionProcessing</text>
</g>
<!-- RatesStorage&#45;&gt;StreamingTransactionProcessing -->
<g id="edge7" class="edge">
<title>RatesStorage&#45;&gt;StreamingTransactionProcessing</title>
<path fill="none" stroke="black" d="M216.68,-144.23C233.42,-134.93 254.45,-123.25 272.54,-113.2"/>
<polygon fill="black" stroke="black" points="274.65,-116.03 281.69,-108.12 271.25,-109.91 274.65,-116.03"/>
</g>
<!-- TransactionsDump -->
<g id="node2" class="node">
<title>TransactionsDump</title>
<path fill="none" stroke="black" d="M123,-176.73C123,-178.53 95.43,-180 61.5,-180 27.57,-180 0,-178.53 0,-176.73 0,-176.73 0,-147.27 0,-147.27 0,-145.47 27.57,-144 61.5,-144 95.43,-144 123,-145.47 123,-147.27 123,-147.27 123,-176.73 123,-176.73"/>
<path fill="none" stroke="black" d="M123,-176.73C123,-174.92 95.43,-173.45 61.5,-173.45 27.57,-173.45 0,-174.92 0,-176.73"/>
<text text-anchor="middle" x="61.5" y="-158.3" font-family="Times,serif" font-size="14.00">TransactionsDump</text>
</g>
<!-- TransactionsDump&#45;&gt;BulkTransactionProcessing -->
<g id="edge3" class="edge">
<title>TransactionsDump&#45;&gt;BulkTransactionProcessing</title>
<path fill="none" stroke="black" d="M69.41,-143.7C73.05,-135.73 77.45,-126.1 81.49,-117.26"/>
<polygon fill="black" stroke="black" points="84.71,-118.65 85.68,-108.1 78.34,-115.74 84.71,-118.65"/>
</g>
<!-- TransactionsEnriched -->
<g id="node3" class="node">
<title>TransactionsEnriched</title>
<path fill="none" stroke="black" d="M162.5,-32.73C162.5,-34.53 131.57,-36 93.5,-36 55.43,-36 24.5,-34.53 24.5,-32.73 24.5,-32.73 24.5,-3.27 24.5,-3.27 24.5,-1.47 55.43,0 93.5,0 131.57,0 162.5,-1.47 162.5,-3.27 162.5,-3.27 162.5,-32.73 162.5,-32.73"/>
<path fill="none" stroke="black" d="M162.5,-32.73C162.5,-30.92 131.57,-29.45 93.5,-29.45 55.43,-29.45 24.5,-30.92 24.5,-32.73"/>
<text text-anchor="middle" x="93.5" y="-14.3" font-family="Times,serif" font-size="14.00">TransactionsEnriched</text>
</g>
<!-- RatesLoader -->
<g id="node4" class="node">
<title>RatesLoader</title>
<polygon fill="none" stroke="black" points="230,-252 143,-252 143,-248 139,-248 139,-244 143,-244 143,-224 139,-224 139,-220 143,-220 143,-216 230,-216 230,-252"/>
<polyline fill="none" stroke="black" points="143,-248 147,-248 147,-244 143,-244 "/>
<polyline fill="none" stroke="black" points="143,-224 147,-224 147,-220 143,-220 "/>
<text text-anchor="middle" x="186.5" y="-230.3" font-family="Times,serif" font-size="14.00">RatesLoader</text>
</g>
<!-- RatesLoader&#45;&gt;RatesStorage -->
<g id="edge2" class="edge">
<title>RatesLoader&#45;&gt;RatesStorage</title>
<path fill="none" stroke="black" d="M186.5,-215.7C186.5,-207.98 186.5,-198.71 186.5,-190.11"/>
<polygon fill="black" stroke="black" points="190,-190.1 186.5,-180.1 183,-190.1 190,-190.1"/>
</g>
<!-- BulkTransactionProcessing&#45;&gt;TransactionsEnriched -->
<g id="edge5" class="edge">
<title>BulkTransactionProcessing&#45;&gt;TransactionsEnriched</title>
<path fill="none" stroke="black" d="M93.5,-71.7C93.5,-63.98 93.5,-54.71 93.5,-46.11"/>
<polygon fill="black" stroke="black" points="97,-46.1 93.5,-36.1 90,-46.1 97,-46.1"/>
</g>
<!-- TrasnactionsTopic -->
<g id="node9" class="node">
<title>TrasnactionsTopic</title>
<ellipse fill="none" stroke="black" cx="312.5" cy="-18" rx="77.19" ry="18"/>
<text text-anchor="middle" x="312.5" y="-14.3" font-family="Times,serif" font-size="14.00">TrasnactionsTopic</text>
</g>
<!-- StreamingTransactionProcessing&#45;&gt;TrasnactionsTopic -->
<g id="edge8" class="edge">
<title>StreamingTransactionProcessing&#45;&gt;TrasnactionsTopic</title>
<path fill="none" stroke="black" d="M312.5,-71.7C312.5,-63.98 312.5,-54.71 312.5,-46.11"/>
<polygon fill="black" stroke="black" points="316,-46.1 312.5,-36.1 309,-46.1 316,-46.1"/>
</g>
<!-- FXRatesProvider -->
<g id="node7" class="node">
<title>FXRatesProvider</title>
<ellipse fill="none" stroke="black" cx="186.5" cy="-306" rx="74.19" ry="18"/>
<text text-anchor="middle" x="186.5" y="-302.3" font-family="Times,serif" font-size="14.00">FXRatesProvider</text>
</g>
<!-- FXRatesProvider&#45;&gt;RatesLoader -->
<g id="edge1" class="edge">
<title>FXRatesProvider&#45;&gt;RatesLoader</title>
<path fill="none" stroke="black" d="M186.5,-287.7C186.5,-279.98 186.5,-270.71 186.5,-262.11"/>
<polygon fill="black" stroke="black" points="190,-262.1 186.5,-252.1 183,-262.1 190,-262.1"/>
</g>
<!-- TransactionStream -->
<g id="node8" class="node">
<title>TransactionStream</title>
<ellipse fill="none" stroke="black" cx="328.5" cy="-162" rx="79.09" ry="18"/>
<text text-anchor="middle" x="328.5" y="-158.3" font-family="Times,serif" font-size="14.00">TransactionStream</text>
</g>
<!-- TransactionStream&#45;&gt;StreamingTransactionProcessing -->
<g id="edge6" class="edge">
<title>TransactionStream&#45;&gt;StreamingTransactionProcessing</title>
<path fill="none" stroke="black" d="M324.54,-143.7C322.78,-135.98 320.66,-126.71 318.7,-118.11"/>
<polygon fill="black" stroke="black" points="322.05,-117.07 316.41,-108.1 315.23,-118.63 322.05,-117.07"/>
</g>
</g>
</svg>
