<?xml version="1.0" encoding="UTF-8" standalone="no"?>
<!DOCTYPE svg PUBLIC "-//W3C//DTD SVG 1.1//EN"
 "http://www.w3.org/Graphics/SVG/1.1/DTD/svg11.dtd">
<!-- Generated by graphviz version 2.47.3 (20210619.1520)
 -->
<!-- Title: CurrencyConversion Pages: 1 -->
<svg width="708pt" height="220pt"
 viewBox="0.00 0.00 707.88 220.00" xmlns="http://www.w3.org/2000/svg" xmlns:xlink="http://www.w3.org/1999/xlink">
<g id="graph0" class="graph" transform="scale(1 1) rotate(0) translate(4 216)">
<title>CurrencyConversion</title>
<polygon fill="white" stroke="transparent" points="-4,4 -4,-216 703.88,-216 703.88,4 -4,4"/>
<g id="clust1" class="cluster">
<title>cluster_Rates</title>
</g>
<!-- RatesStorage -->
<g id="node1" class="node">
<title>RatesStorage</title>
<path fill="none" stroke="black" d="M298.09,-192.73C298.09,-194.53 277.92,-196 253.09,-196 228.26,-196 208.09,-194.53 208.09,-192.73 208.09,-192.73 208.09,-163.27 208.09,-163.27 208.09,-161.47 228.26,-160 253.09,-160 277.92,-160 298.09,-161.47 298.09,-163.27 298.09,-163.27 298.09,-192.73 298.09,-192.73"/>
<path fill="none" stroke="black" d="M298.09,-192.73C298.09,-190.92 277.92,-189.45 253.09,-189.45 228.26,-189.45 208.09,-190.92 208.09,-192.73"/>
<text text-anchor="middle" x="253.09" y="-174.3" font-family="Times,serif" font-size="14.00">RatesStorage</text>
</g>
<!-- RatesLoader -->
<g id="node2" class="node">
<title>RatesLoader</title>
<polygon fill="none" stroke="#e31a1c" points="251.59,-109 164.59,-109 164.59,-105 160.59,-105 160.59,-101 164.59,-101 164.59,-81 160.59,-81 160.59,-77 164.59,-77 164.59,-73 251.59,-73 251.59,-109"/>
<polyline fill="none" stroke="#e31a1c" points="164.59,-105 168.59,-105 168.59,-101 164.59,-101 "/>
<polyline fill="none" stroke="#e31a1c" points="164.59,-81 168.59,-81 168.59,-77 164.59,-77 "/>
<text text-anchor="middle" x="208.09" y="-87.3" font-family="Times,serif" font-size="14.00">RatesLoader</text>
</g>
<!-- RatesStorage&#45;&gt;RatesLoader -->
<g id="edge1" class="edge">
<title>RatesStorage&#45;&gt;RatesLoader</title>
<path fill="none" stroke="black" d="M207.79,-163.42C198.01,-158.3 188.88,-151.36 183.09,-142 178.3,-134.24 180.39,-125.44 184.97,-117.4"/>
<polygon fill="black" stroke="black" points="187.91,-119.3 190.7,-109.07 182.15,-115.33 187.91,-119.3"/>
<text text-anchor="middle" x="212.59" y="-130.8" font-family="Times,serif" font-size="14.00">previous &#160;&#160;</text>
</g>
<!-- BulkTransactionProcessing -->
<g id="node6" class="node">
<title>BulkTransactionProcessing</title>
<polygon fill="none" stroke="#e31a1c" points="472.09,-109 314.09,-109 314.09,-105 310.09,-105 310.09,-101 314.09,-101 314.09,-81 310.09,-81 310.09,-77 314.09,-77 314.09,-73 472.09,-73 472.09,-109"/>
<polyline fill="none" stroke="#e31a1c" points="314.09,-105 318.09,-105 318.09,-101 314.09,-101 "/>
<polyline fill="none" stroke="#e31a1c" points="314.09,-81 318.09,-81 318.09,-77 314.09,-77 "/>
<text text-anchor="middle" x="393.09" y="-87.3" font-family="Times,serif" font-size="14.00">TransacrionEnricherBulk</text>
</g>
<!-- RatesStorage&#45;&gt;BulkTransactionProcessing -->
<g id="edge5" class="edge">
<title>RatesStorage&#45;&gt;BulkTransactionProcessing</title>
<path fill="none" stroke="black" d="M281.09,-160C302.6,-146.94 332.51,-128.79 356.01,-114.52"/>
<polygon fill="black" stroke="black" points="357.94,-117.44 364.67,-109.26 354.3,-111.46 357.94,-117.44"/>
</g>
<!-- StreamingTransactionProcessing -->
<g id="node7" class="node">
<title>StreamingTransactionProcessing</title>
<polygon fill="none" stroke="#e31a1c" points="665.59,-109 494.59,-109 494.59,-105 490.59,-105 490.59,-101 494.59,-101 494.59,-81 490.59,-81 490.59,-77 494.59,-77 494.59,-73 665.59,-73 665.59,-109"/>
<polyline fill="none" stroke="#e31a1c" points="494.59,-105 498.59,-105 498.59,-101 494.59,-101 "/>
<polyline fill="none" stroke="#e31a1c" points="494.59,-81 498.59,-81 498.59,-77 494.59,-77 "/>
<text text-anchor="middle" x="580.09" y="-87.3" font-family="Times,serif" font-size="14.00">TransacrionEnricherStream</text>
</g>
<!-- RatesStorage&#45;&gt;StreamingTransactionProcessing -->
<g id="edge8" class="edge">
<title>RatesStorage&#45;&gt;StreamingTransactionProcessing</title>
<path fill="none" stroke="black" d="M298.22,-165.27C351.44,-151.44 440.72,-128.23 504.54,-111.64"/>
<polygon fill="black" stroke="black" points="505.76,-114.94 514.56,-109.03 504,-108.16 505.76,-114.94"/>
</g>
<!-- RatesLoader&#45;&gt;RatesStorage -->
<g id="edge3" class="edge">
<title>RatesLoader&#45;&gt;RatesStorage</title>
<path fill="none" stroke="black" d="M228.59,-109.32C233.67,-114.53 238.64,-120.58 242.09,-127 245.86,-134 248.33,-142.2 249.96,-149.92"/>
<polygon fill="black" stroke="black" points="246.55,-150.72 251.7,-159.98 253.45,-149.53 246.55,-150.72"/>
<text text-anchor="middle" x="264.09" y="-130.8" font-family="Times,serif" font-size="14.00">new &#160;&#160;</text>
</g>
<!-- Transactions -->
<g id="node3" class="node">
<title>Transactions</title>
<path fill="none" stroke="black" d="M437.09,-192.73C437.09,-194.53 417.37,-196 393.09,-196 368.81,-196 349.09,-194.53 349.09,-192.73 349.09,-192.73 349.09,-163.27 349.09,-163.27 349.09,-161.47 368.81,-160 393.09,-160 417.37,-160 437.09,-161.47 437.09,-163.27 437.09,-163.27 437.09,-192.73 437.09,-192.73"/>
<path fill="none" stroke="black" d="M437.09,-192.73C437.09,-190.92 417.37,-189.45 393.09,-189.45 368.81,-189.45 349.09,-190.92 349.09,-192.73"/>
<text text-anchor="middle" x="393.09" y="-174.3" font-family="Times,serif" font-size="14.00">Transactions</text>
</g>
<!-- Transactions&#45;&gt;BulkTransactionProcessing -->
<g id="edge4" class="edge">
<title>Transactions&#45;&gt;BulkTransactionProcessing</title>
<path fill="none" stroke="black" d="M393.09,-159.8C393.09,-148.16 393.09,-132.55 393.09,-119.24"/>
<polygon fill="black" stroke="black" points="396.59,-119.18 393.09,-109.18 389.59,-119.18 396.59,-119.18"/>
</g>
<!-- TransactionsEnriched -->
<g id="node4" class="node">
<title>TransactionsEnriched</title>
<path fill="none" stroke="black" d="M458.09,-32.73C458.09,-34.53 427.17,-36 389.09,-36 351.02,-36 320.09,-34.53 320.09,-32.73 320.09,-32.73 320.09,-3.27 320.09,-3.27 320.09,-1.47 351.02,0 389.09,0 427.17,0 458.09,-1.47 458.09,-3.27 458.09,-3.27 458.09,-32.73 458.09,-32.73"/>
<path fill="none" stroke="black" d="M458.09,-32.73C458.09,-30.92 427.17,-29.45 389.09,-29.45 351.02,-29.45 320.09,-30.92 320.09,-32.73"/>
<text text-anchor="middle" x="389.09" y="-14.3" font-family="Times,serif" font-size="14.00">TransactionsEnriched</text>
</g>
<!-- TransactionsTopic -->
<g id="node5" class="node">
<title>TransactionsTopic</title>
<ellipse fill="none" stroke="black" cx="588.09" cy="-18" rx="111.58" ry="18"/>
<text text-anchor="middle" x="588.09" y="-14.3" font-family="Times,serif" font-size="14.00">TransactionEnrichedStream</text>
</g>
<!-- BulkTransactionProcessing&#45;&gt;TransactionsEnriched -->
<g id="edge6" class="edge">
<title>BulkTransactionProcessing&#45;&gt;TransactionsEnriched</title>
<path fill="none" stroke="black" d="M392.13,-72.81C391.67,-64.79 391.12,-55.05 390.62,-46.07"/>
<polygon fill="black" stroke="black" points="394.11,-45.82 390.05,-36.03 387.12,-46.21 394.11,-45.82"/>
</g>
<!-- StreamingTransactionProcessing&#45;&gt;TransactionsTopic -->
<g id="edge9" class="edge">
<title>StreamingTransactionProcessing&#45;&gt;TransactionsTopic</title>
<path fill="none" stroke="black" d="M582.03,-72.81C582.93,-64.79 584.03,-55.05 585.04,-46.07"/>
<polygon fill="black" stroke="black" points="588.53,-46.36 586.17,-36.03 581.58,-45.57 588.53,-46.36"/>
</g>
<!-- FXRatesProvider -->
<g id="node8" class="node">
<title>FXRatesProvider</title>
<ellipse fill="none" stroke="black" cx="74.09" cy="-178" rx="74.19" ry="18"/>
<text text-anchor="middle" x="74.09" y="-174.3" font-family="Times,serif" font-size="14.00">FXRatesProvider</text>
</g>
<!-- FXRatesProvider&#45;&gt;RatesLoader -->
<g id="edge2" class="edge">
<title>FXRatesProvider&#45;&gt;RatesLoader</title>
<path fill="none" stroke="black" d="M82.39,-160.09C88.46,-149.29 97.62,-135.72 109.09,-127 122.43,-116.86 138.96,-109.49 154.66,-104.21"/>
<polygon fill="black" stroke="black" points="155.8,-107.52 164.29,-101.18 153.71,-100.84 155.8,-107.52"/>
<text text-anchor="middle" x="142.59" y="-130.8" font-family="Times,serif" font-size="14.00">increment &#160;&#160;</text>
</g>
<!-- TransactionStream -->
<g id="node9" class="node">
<title>TransactionStream</title>
<ellipse fill="none" stroke="black" cx="580.09" cy="-178" rx="79.09" ry="18"/>
<text text-anchor="middle" x="580.09" y="-174.3" font-family="Times,serif" font-size="14.00">TransactionStream</text>
</g>
<!-- TransactionStream&#45;&gt;StreamingTransactionProcessing -->
<g id="edge7" class="edge">
<title>TransactionStream&#45;&gt;StreamingTransactionProcessing</title>
<path fill="none" stroke="black" d="M580.09,-159.8C580.09,-148.16 580.09,-132.55 580.09,-119.24"/>
<polygon fill="black" stroke="black" points="583.59,-119.18 580.09,-109.18 576.59,-119.18 583.59,-119.18"/>
</g>
</g>
</svg>
